<?xml version="1.0" encoding="UTF-8"?>
<svg id="Layer_1" data-name="Layer 1" xmlns="http://www.w3.org/2000/svg" viewBox="0 0 1920 1080">
  <defs>
    <style>
      .cls-1 {
        stroke-width: 0px;
      }
    </style>
  </defs>
  <g>
    <path class="cls-1" d="m491.42,560.81c3.11,0,5.61,2.55,5.56,5.65-.32,20.22-1.23,27.83-4.48,34.8-6.57,14.41-20.23,21.24-46.52,23.01-10.37,1.01-30.59,1.26-64.22,1.26-48.55,0-64.22-2.28-77.88-11.13-16.69-10.62-21.49-28.32-21.49-78.38,0-44.5,5.06-60.43,22.76-70.55,15.17-8.85,31.35-11.13,78.64-11.13,62.96,0,76.61,1.26,91.03,8.34,13.65,6.83,19.98,21.75,19.98,46.52h0c0,3.07-2.49,5.56-5.56,5.56h-38.37c-2.81,0-5.18-2.09-5.53-4.88-1.72-13.86-8.69-15.1-48.9-15.1s-49.56,1.01-55.88,6.57c-6.07,5.56-7.33,12.39-7.33,39.7,0,40.46,3.79,43.49,53.1,43.49,38.18,0,43.74-.25,50.82-3.29,6.22-2.57,9.16-6.78,9.91-15.4.25-2.87,2.66-5.08,5.54-5.08h38.84Z"/>
    <path class="cls-1" d="m706.16,456.38c26.04,4.8,38.69,18.21,42.23,45.26,1.01,6.83,1.52,20.48,1.52,40.96,0,40.71-4.3,57.14-18.71,69.03-10.11,8.6-24.27,12.64-48.8,13.65-9.1.51-31.61.76-48.04.76-40.2,0-60.68-.76-70.8-2.78-18.71-3.29-29.58-10.37-35.9-22.76-6.57-12.39-8.09-24.78-8.09-61.7,0-28.32.51-35.4,3.54-46.78,4.8-17.95,14.67-27.56,33.63-33.12,14.16-4.05,29.58-5.06,74.09-5.06,48.55,0,63.47.51,75.35,2.53Zm-125.92,44.75c-6.83,5.31-8.85,13.65-8.85,37.93s2.02,33.88,8.34,39.19c6.83,5.56,15.17,6.57,53.86,6.57,44.25,0,53.35-1.52,59.17-9.61,4.8-6.07,6.07-14.67,6.07-37.17,0-42.48-.76-42.98-63.97-42.98-37.67,0-48.04,1.26-54.62,6.07Z"/>
    <path class="cls-1" d="m790.36,455.62h32.45c5.21,0,9.44,4.23,9.44,9.44v108.05c0,5.21,4.23,9.44,9.44,9.44h97.18c5.21,0,9.44,4.23,9.44,9.44v22.84c0,5.21-4.23,9.44-9.44,9.44h-148.51c-5.21,0-9.44-4.23-9.44-9.44v-149.77c0-5.21,4.23-9.44,9.44-9.44Z"/>
    <path class="cls-1" d="m980.08,455.62h32.45c5.21,0,9.44,4.23,9.44,9.44v108.05c0,5.21,4.23,9.44,9.44,9.44h97.18c5.21,0,9.44,4.23,9.44,9.44v22.84c0,5.21-4.23,9.44-9.44,9.44h-148.51c-5.21,0-9.44-4.23-9.44-9.44v-149.77c0-5.21,4.23-9.44,9.44-9.44Z"/>
    <path class="cls-1" d="m1249.06,455.62h59.88c2.76,0,5.3,1.51,6.63,3.93l84.02,153.54c2.76,5.03-.89,11.18-6.63,11.18h-38.94c-2.75,0-5.28-1.49-6.61-3.89l-12.37-22.31c-1.33-2.4-3.86-3.89-6.61-3.89h-99.76c-2.78,0-5.34,1.53-6.65,3.98l-11.91,22.14c-1.32,2.45-3.87,3.98-6.65,3.98h-40.73c-5.78,0-9.42-6.22-6.59-11.26l86.32-153.54c1.34-2.38,3.86-3.85,6.59-3.85Zm60.9,94.23l-25.93-47.9c-2.36-4.36-8.62-4.34-10.96.03l-25.57,47.9c-2.21,4.14.79,9.15,5.49,9.15h51.5c4.71,0,7.72-5.04,5.47-9.18Z"/>
    <path class="cls-1" d="m1419.78,460.81c0-2.87,2.32-5.19,5.19-5.19h140.2c29.84,0,42.98,2.53,52.59,10.62,9.86,7.84,14.41,22.25,14.41,45.01s-4.35,36.62-15.8,43.55c-3.49,2.11-3.3,7.21.33,9.08,10.22,5.24,13.57,15,13.19,33.85v21.36c0,2.87-2.32,5.19-5.19,5.19h-41.7c-2.87,0-5.19-2.32-5.19-5.19v-15.79c-.25-18.21-5.31-22-28.32-21.49h-73.44c-2.87,0-5.19,2.32-5.19,5.19v32.1c0,2.87-2.32,5.19-5.19,5.19h-40.69c-2.87,0-5.19-2.32-5.19-5.19v-158.27Zm131.23,79.77c24.78,0,29.58-3.03,29.58-19.72,0-10.87-1.01-15.42-4.3-18.96-3.79-4.05-8.09-4.8-23.52-4.8h-76.73c-2.87,0-5.19,2.32-5.19,5.19v33.11c0,2.87,2.32,5.19,5.19,5.19h74.96Z"/>
  </g>
  <path class="cls-1" d="m1751.83,538.86c0,4.57-2.71,8.71-6.89,10.54l-16.23,7.11v-.02c-6.28,2.73-8.5,8.49-8.5,21.68v38.43c0,15.43-2.15,24.58-7.22,30.33-5.26,6.27-11.51,8.62-22.82,8.62-5.36,0-6.3,0-18.29-.4-1.98-.06-3.55-1.58-3.55-3.43v-28.03c0-1.89,1.65-3.43,3.68-3.43h.02c13.46,0,14.83-1.83,14.83-18.04v-29.02c.17-16.31,2.36-24.1,9.32-30.79,1.41-1.35,1.41-3.48,0-4.83-7.07-6.75-8.98-13.95-9.32-30.52v-27.71c0-13.07-.39-14.9-3.32-17.26-1.76-1.3-5.85-2.09-11.31-2.09h-.22c-2.03,0-3.68-1.54-3.68-3.43v-28.13c0-1.81,1.5-3.31,3.44-3.43,9.1-.56,11.99-.56,17.23-.56,14.24,0,21.46,3.13,26.33,12.02,3.32,5.49,4.88,14.38,4.88,25.88v38.43c.17,12.45,2.4,17.94,8.5,20.44l16.23,7.11c2.09.91,3.81,2.41,5.01,4.24,1.2,1.83,1.88,4.01,1.88,6.29Z"/>
  <path class="cls-1" d="m223.82,537.58c-1.41,1.35-1.41,3.48,0,4.83,6.96,6.69,9.15,14.48,9.32,30.79v29.02c0,16.21,1.37,18.04,14.83,18.04h.02c2.03,0,3.68,1.54,3.68,3.43v28.03c0,1.85-1.57,3.37-3.55,3.43-11.99.4-12.93.4-18.29.4-11.31,0-17.56-2.35-22.82-8.62-5.07-5.75-7.22-14.9-7.22-30.33v-38.43c0-13.19-2.22-18.95-8.5-21.68v.02l-16.23-7.11c-4.18-1.83-6.89-5.97-6.89-10.54,0-2.28.68-4.46,1.88-6.29s2.92-3.33,5.01-4.24l16.23-7.11c6.1-2.5,8.33-7.99,8.5-20.44v-38.43c0-11.5,1.56-20.39,4.88-25.88,4.87-8.89,12.09-12.02,26.33-12.02,5.24,0,8.13,0,17.23.56,1.94.12,3.44,1.62,3.44,3.43v28.13c0,1.89-1.65,3.43-3.68,3.43h-.22c-5.46,0-9.55.79-11.31,2.09-2.93,2.36-3.32,4.19-3.32,17.26v27.71c-.34,16.57-2.25,23.77-9.32,30.52Z"/>
</svg>