<?xml version="1.0" encoding="UTF-8"?>
<svg id="Layer_1" data-name="Layer 1" xmlns="http://www.w3.org/2000/svg" viewBox="0 0 1920 1080">
  <defs>
    <style>
      .cls-1 {
        stroke-width: 0px;
      }
    </style>
  </defs>
  <path class="cls-1" d="m1300.9,538.22c0,7.18-4.25,13.68-10.83,16.56l-25.5,11.16v-.03c-9.88,4.3-13.36,13.35-13.36,34.07v60.39c0,24.24-3.37,38.62-11.34,47.66-8.28,9.85-18.08,13.55-35.86,13.55-8.43,0-9.9,0-28.74-.63-3.12-.1-5.59-2.49-5.59-5.39v-44.04c0-2.98,2.6-5.4,5.8-5.4h.03c21.14,0,23.29-2.87,23.29-28.34v-45.6c.27-25.63,3.71-37.88,14.65-48.39,2.21-2.12,2.22-5.48,0-7.6-11.11-10.6-14.1-21.91-14.65-47.95v-43.55c0-20.54-.61-23.41-5.21-27.11-2.76-2.05-9.2-3.29-17.78-3.29h-.34c-3.2,0-5.79-2.41-5.79-5.39v-44.21c0-2.84,2.37-5.19,5.41-5.38,14.3-.89,18.84-.89,27.08-.89,22.37,0,33.72,4.93,41.38,18.9,5.21,8.63,7.66,22.59,7.66,40.67v60.39c.28,19.56,3.77,28.18,13.36,32.11.17.07.33.14.49.23l25.01,10.94c3.29,1.44,6,3.78,7.88,6.67,1.89,2.88,2.95,6.3,2.95,9.89Z"/>
  <path class="cls-1" d="m1119.21,572.89c4.91,0,8.87,4.03,8.79,8.94-.51,31.96-1.94,43.99-7.08,55.01-10.39,22.78-31.97,33.57-73.54,36.37-16.39,1.6-48.36,2-101.52,2-76.74,0-101.52-3.6-123.1-17.59-26.38-16.79-33.97-44.76-33.97-123.9,0-70.34,7.99-95.52,35.97-111.51,23.98-13.99,49.56-17.59,124.3-17.59,99.52,0,121.1,2,143.88,13.19,21.58,10.79,31.57,34.37,31.57,73.54h0c0,4.86-3.94,8.79-8.79,8.79h-60.66c-4.42,0-8.18-3.28-8.72-7.66-2.7-21.95-13.69-23.91-77.3-23.91s-78.34,1.6-88.33,10.39c-9.59,8.79-11.59,19.58-11.59,62.75,0,63.95,6,68.74,83.93,68.74,60.35,0,69.14-.4,80.33-5.2,9.83-4.07,14.48-10.72,15.67-24.34.4-4.54,4.2-8.03,8.76-8.03h61.39Z"/>
  <path class="cls-1" d="m705.15,536.19c-2.22,2.12-2.22,5.48,0,7.6,10.94,10.51,14.37,22.76,14.65,48.39v45.6c0,25.47,2.14,28.34,23.29,28.34h.03c3.2,0,5.79,2.42,5.79,5.4v44.04c0,2.9-2.47,5.29-5.58,5.39-18.84.63-20.31.63-28.74.63-17.78,0-27.59-3.7-35.86-13.55-7.97-9.04-11.34-23.42-11.34-47.66v-60.39c0-20.82-3.52-29.86-13.5-34.13-.8-.35-1.49-.85-2.04-1.47l-21.93-9.6c-6.57-2.88-10.82-9.38-10.82-16.56,0-3.59,1.06-7.01,2.95-9.89,1.88-2.89,4.59-5.23,7.88-6.67l21.88-9.58c.57-.68,1.33-1.23,2.22-1.59,9.59-3.93,13.08-12.55,13.36-32.11v-60.39c0-18.08,2.45-32.04,7.66-40.67,7.66-13.97,19-18.9,41.38-18.9,8.23,0,12.78,0,27.07.89,3.05.19,5.41,2.54,5.41,5.38v44.21c0,2.98-2.59,5.39-5.78,5.39h-.35c-8.58,0-15.01,1.24-17.77,3.29-4.6,3.7-5.21,6.57-5.21,27.11v43.55c-.55,26.04-3.54,37.35-14.65,47.95Z"/>
</svg>